<svg width="22" height="22" viewBox="0 0 22 22" fill="none" xmlns="http://www.w3.org/2000/svg">
<path d="M0.506124 10.9357C0.194395 11.2085 0.162805 11.6823 0.435565 11.994C0.708325 12.3057 1.18215 12.3373 1.49388 12.0646L0.506124 10.9357ZM2.75159 9.96751L3.24546 10.5319L3.24546 10.5319L2.75159 9.96751ZM5.89249 10.0721L6.42282 9.54177L6.42282 9.54177L5.89249 10.0721ZM10.1822 14.3618L10.7125 13.8315L10.7125 13.8315L10.1822 14.3618ZM12.7464 14.5839L13.1776 15.1975L13.1776 15.1975L12.7464 14.5839ZM13.0446 14.3744L12.6134 13.7607L12.6134 13.7607L13.0446 14.3744ZM16.7765 14.599L16.2747 15.1564L16.2747 15.1564L16.7765 14.599ZM19.4983 18.0576C19.8062 18.3347 20.2804 18.3097 20.5575 18.0019C20.8346 17.694 20.8096 17.2198 20.5017 16.9427L19.4983 18.0576ZM11 20.25C8.62178 20.25 6.91356 20.2484 5.61358 20.0736C4.33517 19.9018 3.56445 19.5749 2.9948 19.0052L1.93414 20.0659C2.82895 20.9607 3.96897 21.366 5.41371 21.5603C6.83687 21.7516 8.66418 21.75 11 21.75V20.25ZM0.25 11C0.25 13.3358 0.248407 15.1631 0.439746 16.5863C0.633986 18.031 1.03933 19.1711 1.93414 20.0659L2.9948 19.0052C2.42514 18.4355 2.09825 17.6648 1.92637 16.3864C1.75159 15.0864 1.75 13.3782 1.75 11H0.25ZM20.25 11C20.25 13.3782 20.2484 15.0864 20.0736 16.3864C19.9018 17.6648 19.5749 18.4355 19.0052 19.0052L20.0659 20.0659C20.9607 19.1711 21.366 18.031 21.5603 16.5863C21.7516 15.1631 21.75 13.3358 21.75 11H20.25ZM11 21.75C13.3358 21.75 15.1631 21.7516 16.5863 21.5603C18.031 21.366 19.1711 20.9607 20.0659 20.0659L19.0052 19.0052C18.4355 19.5749 17.6648 19.9018 16.3864 20.0736C15.0864 20.2484 13.3782 20.25 11 20.25V21.75ZM11 1.75C13.3782 1.75 15.0864 1.75159 16.3864 1.92637C17.6648 2.09825 18.4355 2.42514 19.0052 2.9948L20.0659 1.93414C19.1711 1.03933 18.031 0.633986 16.5863 0.439746C15.1631 0.248407 13.3358 0.25 11 0.25V1.75ZM21.75 11C21.75 8.66418 21.7516 6.83687 21.5603 5.41371C21.366 3.96897 20.9607 2.82895 20.0659 1.93414L19.0052 2.9948C19.5749 3.56445 19.9018 4.33517 20.0736 5.61358C20.2484 6.91356 20.25 8.62178 20.25 11H21.75ZM11 0.25C8.66418 0.25 6.83687 0.248407 5.41371 0.439746C3.96897 0.633986 2.82895 1.03933 1.93414 1.93414L2.9948 2.9948C3.56445 2.42514 4.33517 2.09825 5.61358 1.92637C6.91356 1.75159 8.62178 1.75 11 1.75V0.25ZM1.75 11C1.75 8.62178 1.75159 6.91356 1.92637 5.61358C2.09825 4.33517 2.42514 3.56445 2.9948 2.9948L1.93414 1.93414C1.03933 2.82895 0.633986 3.96897 0.439746 5.41371C0.248407 6.83687 0.25 8.66418 0.25 11H1.75ZM16.25 7C16.25 7.69036 15.6904 8.25 15 8.25V9.75C16.5188 9.75 17.75 8.51878 17.75 7H16.25ZM15 8.25C14.3096 8.25 13.75 7.69036 13.75 7H12.25C12.25 8.51878 13.4812 9.75 15 9.75V8.25ZM13.75 7C13.75 6.30964 14.3096 5.75 15 5.75V4.25C13.4812 4.25 12.25 5.48122 12.25 7H13.75ZM15 5.75C15.6904 5.75 16.25 6.30964 16.25 7H17.75C17.75 5.48122 16.5188 4.25 15 4.25V5.75ZM1.49388 12.0646L3.24546 10.5319L2.25771 9.40308L0.506124 10.9357L1.49388 12.0646ZM5.36216 10.6024L9.65188 14.8922L10.7125 13.8315L6.42282 9.54177L5.36216 10.6024ZM13.1776 15.1975L13.4758 14.988L12.6134 13.7607L12.3152 13.9703L13.1776 15.1975ZM16.2747 15.1564L19.4983 18.0576L20.5017 16.9427L17.2782 14.0415L16.2747 15.1564ZM13.4758 14.988C14.334 14.3849 15.4951 14.4547 16.2747 15.1564L17.2782 14.0415C15.9788 12.872 14.0437 12.7555 12.6134 13.7607L13.4758 14.988ZM9.65188 14.8922C10.5968 15.8371 12.0843 15.9659 13.1776 15.1975L12.3152 13.9703C11.8182 14.3196 11.1421 14.261 10.7125 13.8315L9.65188 14.8922ZM3.24546 10.5319C3.85958 9.9946 4.78514 10.0254 5.36216 10.6024L6.42282 9.54177C5.28741 8.40636 3.46613 8.34572 2.25771 9.40308L3.24546 10.5319Z" fill="white"/>
</svg>
