<svg width="18" height="18" viewBox="0 0 18 18" fill="none" xmlns="http://www.w3.org/2000/svg">
<path d="M16.4599 1.5401C15.2953 0.3755 13.4071 0.375556 12.2425 1.54023L2.28418 11.4998C1.94557 11.8384 1.70757 12.2644 1.59665 12.7302L0.683663 16.5648C0.633393 16.7759 0.696256 16.998 0.849725 17.1515C1.00319 17.3049 1.22529 17.3678 1.43643 17.3175L5.2708 16.4046C5.73681 16.2936 6.16287 16.0555 6.50158 15.7168L16.46 5.7572C17.6244 4.59262 17.6244 2.70461 16.4599 1.5401ZM13.1265 2.42406C13.8029 1.74759 14.8996 1.74756 15.576 2.42398C16.2524 3.10035 16.2524 4.19695 15.5761 4.87336L14.8333 5.61624L12.3838 3.16679L13.1265 2.42406ZM11.5 4.05072L13.9494 6.50017L5.61764 14.833C5.44252 15.0081 5.22222 15.1312 4.98128 15.1886L2.13491 15.8663L2.81266 13.0197C2.87001 12.7789 2.99305 12.5587 3.16811 12.3836L11.5 4.05072Z" fill="white"/>
</svg>
