<svg width="16" height="17" viewBox="0 0 16 17" fill="none" xmlns="http://www.w3.org/2000/svg">
<path d="M14.6667 3.49984C14.8791 3.50007 15.0834 3.5814 15.2379 3.72721C15.3923 3.87302 15.4852 4.0723 15.4977 4.28433C15.5101 4.49637 15.4412 4.70515 15.3048 4.86803C15.1685 5.03091 14.9751 5.13558 14.7642 5.16067L14.6667 5.1665H14.5992L13.8334 14.3332C13.8334 14.9708 13.5898 15.5844 13.1523 16.0484C12.7149 16.5123 12.1166 16.7916 11.4801 16.829L11.3334 16.8332H4.66672C3.33505 16.8332 2.24672 15.7923 2.17339 14.5415L2.16922 14.4023L1.40005 5.1665H1.33339C1.12099 5.16627 0.916693 5.08494 0.762246 4.93913C0.6078 4.79332 0.514858 4.59404 0.50241 4.38201C0.489962 4.16997 0.558949 3.96119 0.695274 3.79831C0.831599 3.63543 1.02497 3.53076 1.23589 3.50567L1.33339 3.49984H14.6667Z" fill="white" fill-opacity="0.64"/>
<path d="M9.66673 0.166504C10.1088 0.166504 10.5327 0.342099 10.8452 0.654659C11.1578 0.96722 11.3334 1.39114 11.3334 1.83317C11.3332 2.04557 11.2518 2.24986 11.106 2.40431C10.9602 2.55876 10.7609 2.6517 10.5489 2.66415C10.3369 2.67659 10.1281 2.60761 9.9652 2.47128C9.80232 2.33496 9.69765 2.14158 9.67256 1.93067L9.66673 1.83317H6.33339L6.32756 1.93067C6.30247 2.14158 6.1978 2.33496 6.03492 2.47128C5.87204 2.60761 5.66326 2.67659 5.45122 2.66415C5.23919 2.6517 5.03991 2.55876 4.8941 2.40431C4.74829 2.24986 4.66696 2.04557 4.66673 1.83317C4.66659 1.41269 4.8254 1.0077 5.11131 0.699381C5.39722 0.391063 5.7891 0.202207 6.20839 0.170671L6.33339 0.166504H9.66673Z" fill="white" fill-opacity="0.64"/>
<path d="M14.6667 3.49984C14.8791 3.50007 15.0834 3.5814 15.2379 3.72721C15.3923 3.87302 15.4852 4.0723 15.4977 4.28433C15.5101 4.49637 15.4412 4.70515 15.3048 4.86803C15.1685 5.03091 14.9751 5.13558 14.7642 5.16067L14.6667 5.1665H14.5992L13.8334 14.3332C13.8334 14.9708 13.5898 15.5844 13.1523 16.0484C12.7149 16.5123 12.1166 16.7916 11.4801 16.829L11.3334 16.8332H4.66672C3.33505 16.8332 2.24672 15.7923 2.17339 14.5415L2.16922 14.4023L1.40005 5.1665H1.33339C1.12099 5.16627 0.916693 5.08494 0.762246 4.93913C0.6078 4.79332 0.514858 4.59404 0.50241 4.38201C0.489962 4.16997 0.558949 3.96119 0.695274 3.79831C0.831599 3.63543 1.02497 3.53076 1.23589 3.50567L1.33339 3.49984H14.6667Z" stroke="white" stroke-opacity="0.64"/>
<path d="M9.66673 0.166504C10.1088 0.166504 10.5327 0.342099 10.8452 0.654659C11.1578 0.96722 11.3334 1.39114 11.3334 1.83317C11.3332 2.04557 11.2518 2.24986 11.106 2.40431C10.9602 2.55876 10.7609 2.6517 10.5489 2.66415C10.3369 2.67659 10.1281 2.60761 9.9652 2.47128C9.80232 2.33496 9.69765 2.14158 9.67256 1.93067L9.66673 1.83317H6.33339L6.32756 1.93067C6.30247 2.14158 6.1978 2.33496 6.03492 2.47128C5.87204 2.60761 5.66326 2.67659 5.45122 2.66415C5.23919 2.6517 5.03991 2.55876 4.8941 2.40431C4.74829 2.24986 4.66696 2.04557 4.66673 1.83317C4.66659 1.41269 4.8254 1.0077 5.11131 0.699381C5.39722 0.391063 5.7891 0.202207 6.20839 0.170671L6.33339 0.166504H9.66673Z" stroke="white" stroke-opacity="0.64"/>
</svg>
