<svg width="20" height="21" viewBox="0 0 20 21" fill="none" xmlns="http://www.w3.org/2000/svg">
<path d="M9.49992 15.6342L15.6632 9.47093C14.8243 9.12184 13.8308 8.54834 12.8913 7.60874C11.9515 6.66899 11.3779 5.67533 11.0288 4.83643L4.86552 10.9998C4.38458 11.4808 4.14406 11.7213 3.93725 11.9863C3.69328 12.2992 3.48412 12.6376 3.31345 12.9957C3.16878 13.2993 3.06124 13.6219 2.84614 14.2672L1.71188 17.67C1.60603 17.9875 1.68867 18.3376 1.92536 18.5743C2.16205 18.811 2.51215 18.8937 2.8297 18.7878L6.23249 17.6535C6.87776 17.4384 7.20042 17.3309 7.50399 17.1863C7.86208 17.0156 8.20052 16.8064 8.51334 16.5624C8.77842 16.3556 9.019 16.1151 9.49992 15.6342Z" fill="white" fill-opacity="0.64"/>
<path d="M17.3736 7.76072C18.6533 6.48096 18.6533 4.40607 17.3736 3.12632C16.0938 1.84656 14.0189 1.84656 12.7392 3.12632L12 3.86552C12.0102 3.89609 12.0206 3.92707 12.0315 3.95846C12.3024 4.73942 12.8137 5.76318 13.7753 6.72486C14.737 7.68653 15.7607 8.19775 16.5417 8.46869C16.573 8.47953 16.6038 8.48998 16.6342 8.50006L17.3736 7.76072Z" fill="white" fill-opacity="0.64"/>
</svg>
