<svg width="18" height="17" viewBox="0 0 18 17" fill="none" xmlns="http://www.w3.org/2000/svg">
<path d="M16.4597 1.04016C15.2951 -0.124439 13.4069 -0.124383 12.2424 1.04029L2.28403 10.9998C1.94542 11.3385 1.70742 11.7644 1.5965 12.2303L0.683513 16.0648C0.633242 16.276 0.696106 16.4981 0.849575 16.6515C1.00304 16.805 1.22514 16.8679 1.43628 16.8176L5.27065 15.9046C5.73666 15.7937 6.16272 15.5556 6.50143 15.2168L16.4598 5.25726C17.6243 4.09268 17.6242 2.20467 16.4597 1.04016ZM13.1263 1.92412C13.8027 1.24765 14.8994 1.24762 15.5758 1.92405C16.2522 2.60041 16.2522 3.69702 15.5759 4.37342L14.8331 5.1163L12.3837 2.66685L13.1263 1.92412ZM11.4998 3.55078L13.9493 6.00023L5.61749 14.333C5.44237 14.5082 5.22207 14.6313 4.98113 14.6886L2.13476 15.3663L2.81251 12.5198C2.86986 12.279 2.9929 12.0587 3.16796 11.8837L11.4998 3.55078Z" fill="white"/>
</svg>
