<svg width="18" height="10" viewBox="0 0 18 10" fill="none" xmlns="http://www.w3.org/2000/svg">
<path d="M8.99965 3.00389C10.8406 3.00389 12.333 4.49628 12.333 6.33723C12.333 8.17818 10.8406 9.67056 8.99965 9.67056C7.1587 9.67056 5.66632 8.17818 5.66632 6.33723C5.66632 4.49628 7.1587 3.00389 8.99965 3.00389ZM8.99965 0.083374C12.8442 0.083374 16.1631 2.70838 17.0839 6.38703C17.1677 6.72187 16.9642 7.06127 16.6294 7.14509C16.2945 7.22891 15.9551 7.02541 15.8713 6.69057C15.0889 3.56501 12.2675 1.33337 8.99965 1.33337C5.73043 1.33337 2.90807 3.56693 2.12703 6.69433C2.0434 7.02922 1.70411 7.23291 1.36922 7.14927C1.03433 7.06564 0.830644 6.72635 0.914279 6.39146C1.83352 2.71064 5.15339 0.083374 8.99965 0.083374Z" fill="white" fill-opacity="0.48"/>
</svg>
