<svg width="18" height="18" viewBox="0 0 18 18" fill="none" xmlns="http://www.w3.org/2000/svg">
<path d="M12.3333 0.666748C15.0948 0.666748 17.3333 2.90532 17.3333 5.66675C17.3333 6.94784 16.8482 8.1537 15.9967 9.06969L15.8385 9.2321L8.56591 16.5045L8.52164 16.5457L8.4752 16.5831C7.91752 17.0633 7.20502 17.3334 6.45249 17.3334C4.7399 17.3334 3.35157 15.9451 3.35157 14.2325C3.35157 13.4814 3.62075 12.7708 4.09787 12.2146L4.22144 12.0789L4.23401 12.0689L10.3099 5.98241C10.635 5.65669 11.1626 5.65623 11.4884 5.98138C11.8141 6.30653 11.8145 6.83417 11.4894 7.15989L5.41355 13.2464L5.40444 13.2534C5.15752 13.5174 5.01823 13.863 5.01823 14.2325C5.01823 15.0246 5.66037 15.6667 6.45249 15.6667C6.76828 15.6667 7.06656 15.5651 7.31184 15.381L7.41361 15.2971L7.41426 15.2984L14.6663 8.04764L14.7984 7.91064C15.3527 7.30257 15.6667 6.5105 15.6667 5.66675C15.6667 3.8258 14.1743 2.33341 12.3333 2.33341C11.4486 2.33341 10.6212 2.67891 10.0041 3.28224L9.87512 3.41543L9.85972 3.42624L2.08864 11.2003C1.76328 11.5258 1.23564 11.5259 0.910134 11.2006C0.584624 10.8752 0.584506 10.3476 0.90987 10.0221L8.66734 2.26112L8.70618 2.22526C9.64277 1.23822 10.9431 0.666748 12.3333 0.666748Z" fill="white"/>
</svg>
