<svg width="18" height="18" viewBox="0 0 18 18" fill="none" xmlns="http://www.w3.org/2000/svg">
<path d="M7.33317 3.16667H10.6665C10.6665 2.24619 9.92031 1.5 8.99984 1.5C8.07936 1.5 7.33317 2.24619 7.33317 3.16667ZM6.08317 3.16667C6.08317 1.55584 7.38901 0.25 8.99984 0.25C10.6107 0.25 11.9165 1.55584 11.9165 3.16667H16.7082C17.0533 3.16667 17.3332 3.44649 17.3332 3.79167C17.3332 4.13684 17.0533 4.41667 16.7082 4.41667H15.6089L14.6322 14.5093C14.4772 16.1112 13.1311 17.3333 11.5218 17.3333H6.47791C4.86862 17.3333 3.52246 16.1112 3.36745 14.5093L2.39073 4.41667H1.2915C0.946326 4.41667 0.666504 4.13684 0.666504 3.79167C0.666504 3.44649 0.946326 3.16667 1.2915 3.16667H6.08317ZM7.74984 7.125C7.74984 6.77982 7.47002 6.5 7.12484 6.5C6.77966 6.5 6.49984 6.77982 6.49984 7.125V13.375C6.49984 13.7202 6.77966 14 7.12484 14C7.47002 14 7.74984 13.7202 7.74984 13.375V7.125ZM10.8748 6.5C11.22 6.5 11.4998 6.77982 11.4998 7.125V13.375C11.4998 13.7202 11.22 14 10.8748 14C10.5297 14 10.2498 13.7202 10.2498 13.375V7.125C10.2498 6.77982 10.5297 6.5 10.8748 6.5ZM4.61163 14.3889C4.70464 15.35 5.51234 16.0833 6.47791 16.0833H11.5218C12.4873 16.0833 13.295 15.35 13.388 14.3889L14.3531 4.41667H3.64657L4.61163 14.3889Z" fill="#EE3333"/>
</svg>
