<svg width="16" height="17" viewBox="0 0 16 17" fill="none" xmlns="http://www.w3.org/2000/svg">
<path d="M8.00008 2.45817C4.66336 2.45817 1.95841 5.16312 1.95841 8.49984C1.95841 11.8366 4.66336 14.5415 8.00008 14.5415C11.3368 14.5415 14.0417 11.8366 14.0417 8.49984C14.0417 8.26183 14.028 8.02704 14.0012 7.79621C13.9445 7.30692 14.2995 6.83317 14.7921 6.83317C15.2218 6.83317 15.5995 7.13156 15.6515 7.55809C15.6891 7.86674 15.7084 8.18103 15.7084 8.49984C15.7084 12.757 12.2573 16.2082 8.00008 16.2082C3.74289 16.2082 0.291748 12.757 0.291748 8.49984C0.291748 4.24264 3.74289 0.791504 8.00008 0.791504C9.81103 0.791504 11.4761 1.416 12.7917 2.46138V2.0415C12.7917 1.58127 13.1648 1.20817 13.6251 1.20817C14.0853 1.20817 14.4584 1.58127 14.4584 2.0415V4.29008C14.4678 4.30441 14.4771 4.31877 14.4864 4.33317H14.4584V4.5415C14.4584 5.00174 14.0853 5.37484 13.6251 5.37484H11.1251C10.6648 5.37484 10.2917 5.00174 10.2917 4.5415C10.2917 4.08127 10.6648 3.70817 11.1251 3.70817H11.6805C10.6614 2.92427 9.38517 2.45817 8.00008 2.45817Z" fill="white"/>
</svg>
