<svg width="18" height="18" viewBox="0 0 18 18" fill="none" xmlns="http://www.w3.org/2000/svg">
<path d="M7.33329 3.16667H10.6666C10.6666 2.24619 9.92043 1.5 8.99996 1.5C8.07948 1.5 7.33329 2.24619 7.33329 3.16667ZM6.08329 3.16667C6.08329 1.55584 7.38913 0.25 8.99996 0.25C10.6108 0.25 11.9166 1.55584 11.9166 3.16667H16.7083C17.0535 3.16667 17.3333 3.44649 17.3333 3.79167C17.3333 4.13684 17.0535 4.41667 16.7083 4.41667H15.6091L14.6324 14.5093C14.4773 16.1112 13.1312 17.3333 11.5219 17.3333H6.47804C4.86874 17.3333 3.52258 16.1112 3.36757 14.5093L2.39086 4.41667H1.29163C0.946448 4.41667 0.666626 4.13684 0.666626 3.79167C0.666626 3.44649 0.946448 3.16667 1.29163 3.16667H6.08329ZM7.74996 7.125C7.74996 6.77982 7.47014 6.5 7.12496 6.5C6.77978 6.5 6.49996 6.77982 6.49996 7.125V13.375C6.49996 13.7202 6.77978 14 7.12496 14C7.47014 14 7.74996 13.7202 7.74996 13.375V7.125ZM10.875 6.5C11.2201 6.5 11.5 6.77982 11.5 7.125V13.375C11.5 13.7202 11.2201 14 10.875 14C10.5298 14 10.25 13.7202 10.25 13.375V7.125C10.25 6.77982 10.5298 6.5 10.875 6.5ZM4.61176 14.3889C4.70476 15.35 5.51246 16.0833 6.47804 16.0833H11.5219C12.4875 16.0833 13.2952 15.35 13.3882 14.3889L14.3532 4.41667H3.6467L4.61176 14.3889Z" fill="white" fill-opacity="0.32"/>
</svg>
