<svg width="24" height="25" viewBox="0 0 24 25" fill="none" xmlns="http://www.w3.org/2000/svg">
<circle cx="12" cy="12.5" r="12" fill="#B43A13"/>
<path fill-rule="evenodd" clip-rule="evenodd" d="M8.01867 7.37752C7.68197 7.04083 7.13609 7.04083 6.79939 7.37752C6.4627 7.71421 6.4627 8.2601 6.79939 8.59679L10.7026 12.5L6.79939 16.4032C6.4627 16.7399 6.4627 17.2858 6.79939 17.6225C7.13609 17.9592 7.68197 17.9592 8.01867 17.6225L11.9219 13.7193L15.8251 17.6225C16.1618 17.9592 16.7077 17.9592 17.0444 17.6225C17.381 17.2858 17.381 16.7399 17.0444 16.4032L13.1411 12.5L17.0444 8.59679C17.381 8.2601 17.381 7.71421 17.0444 7.37752C16.7077 7.04083 16.1618 7.04083 15.8251 7.37752L11.9219 11.2807L8.01867 7.37752Z" fill="white"/>
</svg>
