<svg width="20" height="20" viewBox="0 0 20 20" fill="none" xmlns="http://www.w3.org/2000/svg">
<path fill-rule="evenodd" clip-rule="evenodd" d="M16.5572 3.4428C15.9972 1.59504 14.2807 0.25 12.25 0.25H4.75C2.26472 0.25 0.25 2.26472 0.25 4.75V12.25C0.25 14.2807 1.59504 15.9972 3.4428 16.5572C4.00285 18.405 5.71935 19.75 7.75 19.75H15.25C17.7353 19.75 19.75 17.7353 19.75 15.25V7.75C19.75 5.71935 18.405 4.00285 16.5572 3.4428ZM12.25 1.75H4.75C3.09315 1.75 1.75 3.09315 1.75 4.75V12.25C1.75 13.3604 2.3533 14.3299 3.25 14.8487V7.75C3.25 5.26472 5.26472 3.25 7.75 3.25H14.8487C14.3299 2.3533 13.3604 1.75 12.25 1.75ZM7.75 4.75H15.25C16.9069 4.75 18.25 6.09315 18.25 7.75V15.25C18.25 16.9069 16.9069 18.25 15.25 18.25H7.75C6.09315 18.25 4.75 16.9069 4.75 15.25V7.75C4.75 6.09315 6.09315 4.75 7.75 4.75Z" fill="#286CE0"/>
</svg>
