<svg width="19" height="18" viewBox="0 0 19 18" fill="none" xmlns="http://www.w3.org/2000/svg">
<path d="M3.75 0C1.95507 0 0.5 1.45508 0.5 3.25V14.75C0.5 16.5449 1.95508 18 3.75 18H15.25C17.0449 18 18.5 16.5449 18.5 14.75V3.25C18.5 1.45507 17.0449 0 15.25 0H3.75ZM8.03033 6.28033L5.31066 9L8.03033 11.7197C8.32322 12.0126 8.32322 12.4874 8.03033 12.7803C7.73744 13.0732 7.26256 13.0732 6.96967 12.7803L3.71967 9.53033C3.42678 9.23744 3.42678 8.76256 3.71967 8.46967L6.96967 5.21967C7.26256 4.92678 7.73744 4.92678 8.03033 5.21967C8.32322 5.51256 8.32322 5.98744 8.03033 6.28033ZM12.0303 5.21967L15.2803 8.46967C15.5732 8.76256 15.5732 9.23744 15.2803 9.53033L12.0303 12.7803C11.7374 13.0732 11.2626 13.0732 10.9697 12.7803C10.6768 12.4874 10.6768 12.0126 10.9697 11.7197L13.6893 9L10.9697 6.28033C10.6768 5.98744 10.6768 5.51256 10.9697 5.21967C11.2626 4.92678 11.7374 4.92678 12.0303 5.21967Z" fill="url(#paint0_linear_2123_3497)"/>
<defs>
<linearGradient id="paint0_linear_2123_3497" x1="0.5" y1="0" x2="18.5" y2="18" gradientUnits="userSpaceOnUse">
<stop stop-color="#2870DD"/>
<stop offset="1" stop-color="#AA54B7"/>
</linearGradient>
</defs>
</svg>
