<svg width="17" height="17" viewBox="0 0 17 17" fill="none" xmlns="http://www.w3.org/2000/svg">
<path d="M1.4165 8.50008C1.4165 4.58806 4.58782 1.41675 8.49984 1.41675C12.4119 1.41675 15.5832 4.58806 15.5832 8.50008C15.5832 12.4121 12.4119 15.5834 8.49984 15.5834C4.58782 15.5834 1.4165 12.4121 1.4165 8.50008ZM8.49984 0.166748C3.89746 0.166748 0.166504 3.89771 0.166504 8.50008C0.166504 13.1025 3.89746 16.8334 8.49984 16.8334C13.1022 16.8334 16.8332 13.1025 16.8332 8.50008C16.8332 3.89771 13.1022 0.166748 8.49984 0.166748ZM8.49413 4.04031C8.45272 3.73536 8.19109 3.50008 7.87484 3.50008C7.52984 3.50008 7.24984 3.78008 7.24984 4.12508V9.12508L7.25555 9.20985C7.29696 9.5148 7.55859 9.75008 7.87484 9.75008H11.2082L11.2929 9.74437C11.5979 9.70296 11.8332 9.44133 11.8332 9.12508C11.8332 8.78008 11.5532 8.50008 11.2082 8.50008H8.49984V4.12508L8.49413 4.04031Z" fill="white" fill-opacity="0.48"/>
</svg>
