<svg width="20" height="18" viewBox="0 0 20 18" fill="none" xmlns="http://www.w3.org/2000/svg">
<path d="M12.5002 17.4C12.8316 17.4 13.1002 17.1313 13.1002 16.7999C13.1002 16.4686 12.8316 16.2 12.5002 16.2H4.7002C3.37471 16.2 2.3002 15.1254 2.3002 13.7999V4.19995C2.3002 2.87447 3.37471 1.79995 4.7002 1.79995H12.5002C12.8316 1.79995 13.1002 1.53132 13.1002 1.19995C13.1002 0.86858 12.8316 0.599951 12.5002 0.599951H4.7002C2.71197 0.599951 1.1002 2.21173 1.1002 4.19995V13.7999C1.1002 15.7882 2.71197 17.4 4.7002 17.4H12.5002ZM13.8759 4.37569C14.1102 4.14137 14.4901 4.14137 14.7245 4.37569L18.9245 8.57569C19.1588 8.81 19.1588 9.1899 18.9245 9.42422L14.7245 13.6242C14.4901 13.8585 14.1102 13.8585 13.8759 13.6242C13.6416 13.3899 13.6416 13.01 13.8759 12.7757L17.0517 9.59995H6.5002C6.16882 9.59995 5.9002 9.33132 5.9002 8.99995C5.9002 8.66858 6.16882 8.39995 6.5002 8.39995H17.0517L13.8759 5.22422C13.6416 4.9899 13.6416 4.61 13.8759 4.37569Z" fill="#2870DD"/>
<path fill-rule="evenodd" clip-rule="evenodd" d="M0.950195 4.19995C0.950195 2.12888 2.62913 0.449951 4.7002 0.449951H12.5002C12.9144 0.449951 13.2502 0.785738 13.2502 1.19995C13.2502 1.61416 12.9144 1.94995 12.5002 1.94995H4.7002C3.45755 1.94995 2.4502 2.95731 2.4502 4.19995V13.7999C2.4502 15.0426 3.45755 16.0499 4.7002 16.0499H12.5002C12.9144 16.0499 13.2502 16.3857 13.2502 16.7999C13.2502 17.2142 12.9144 17.5499 12.5002 17.5499H4.7002C2.62913 17.5499 0.950195 15.871 0.950195 13.7999V4.19995ZM4.7002 0.749951C2.79481 0.749951 1.2502 2.29457 1.2502 4.19995V13.7999C1.2502 15.7053 2.79481 17.25 4.7002 17.25H12.5002C12.7487 17.25 12.9502 17.0485 12.9502 16.7999C12.9502 16.5514 12.7487 16.3499 12.5002 16.3499H4.7002C3.29187 16.3499 2.1502 15.2083 2.1502 13.7999V4.19995C2.1502 2.79163 3.29187 1.64995 4.7002 1.64995H12.5002C12.7487 1.64995 12.9502 1.44848 12.9502 1.19995C12.9502 0.951423 12.7487 0.749951 12.5002 0.749951H4.7002ZM14.6184 4.48175C14.4427 4.30602 14.1577 4.30602 13.982 4.48175C13.8063 4.65749 13.8063 4.94241 13.982 5.11815L17.1577 8.29388C17.2006 8.33678 17.2135 8.4013 17.1903 8.45735C17.167 8.5134 17.1123 8.54995 17.0517 8.54995H6.5002C6.25167 8.54995 6.0502 8.75142 6.0502 8.99995C6.0502 9.24848 6.25167 9.44995 6.5002 9.44995H17.0517C17.1123 9.44995 17.167 9.4865 17.1903 9.54255C17.2135 9.5986 17.2006 9.66312 17.1577 9.70602L13.982 12.8818C13.8063 13.0575 13.8063 13.3424 13.982 13.5181C14.1577 13.6939 14.4427 13.6939 14.6184 13.5181L18.8184 9.31815C18.9941 9.14241 18.9941 8.85749 18.8184 8.68175L14.6184 4.48175ZM13.7699 4.26962C14.0628 3.97673 14.5376 3.97673 14.8305 4.26962L19.0305 8.46962C19.3234 8.76251 19.3234 9.23739 19.0305 9.53028L14.8305 13.7303C14.5376 14.0232 14.0628 14.0232 13.7699 13.7303C13.477 13.4374 13.477 12.9625 13.7699 12.6696L16.6895 9.74995H6.5002C6.08598 9.74995 5.7502 9.41416 5.7502 8.99995C5.7502 8.58574 6.08598 8.24995 6.5002 8.24995H16.6895L13.7699 5.33028C13.477 5.03739 13.477 4.56251 13.7699 4.26962Z" fill="#2870DD"/>
</svg>
