<svg width="132" height="132" viewBox="0 0 132 132" fill="none" xmlns="http://www.w3.org/2000/svg">
<path d="M62.7605 78.0775L62.147 78.5982L11.344 128.469C14.9758 130.708 19.2537 132 23.8333 132H108.167C112.746 132 117.024 130.708 120.656 128.469L69.853 78.5982L69.1679 78.026C67.2501 76.6718 64.6613 76.6889 62.7605 78.0775ZM132 23.8333C132 10.6705 121.329 0 108.167 0H23.8333C10.6705 0 0 10.6705 0 23.8333V108.167C0 112.765 1.30226 117.059 3.5581 120.701L54.4411 70.7484L55.4344 69.8485C61.5571 64.7337 70.5096 64.748 76.6166 69.8912L77.5589 70.7484L128.442 120.701C130.698 117.059 132 112.765 132 108.167V23.8333ZM89.8333 56.8333C81.7332 56.8333 75.1667 50.2668 75.1667 42.1667C75.1667 34.0665 81.7332 27.5 89.8333 27.5C97.9335 27.5 104.5 34.0665 104.5 42.1667C104.5 50.2668 97.9335 56.8333 89.8333 56.8333Z" fill="white" fill-opacity="0.08"/>
</svg>
