<svg width="18" height="18" viewBox="0 0 18 18" fill="none" xmlns="http://www.w3.org/2000/svg">
<path d="M3.25 0C1.45507 0 0 1.45508 0 3.25V14.75C0 16.5449 1.45508 18 3.25 18H14.75C16.5449 18 18 16.5449 18 14.75V3.25C18 1.45507 16.5449 0 14.75 0H3.25ZM7.53033 6.28033L4.81066 9L7.53033 11.7197C7.82322 12.0126 7.82322 12.4874 7.53033 12.7803C7.23744 13.0732 6.76256 13.0732 6.46967 12.7803L3.21967 9.53033C2.92678 9.23744 2.92678 8.76256 3.21967 8.46967L6.46967 5.21967C6.76256 4.92678 7.23744 4.92678 7.53033 5.21967C7.82322 5.51256 7.82322 5.98744 7.53033 6.28033ZM11.5303 5.21967L14.7803 8.46967C15.0732 8.76256 15.0732 9.23744 14.7803 9.53033L11.5303 12.7803C11.2374 13.0732 10.7626 13.0732 10.4697 12.7803C10.1768 12.4874 10.1768 12.0126 10.4697 11.7197L13.1893 9L10.4697 6.28033C10.1768 5.98744 10.1768 5.51256 10.4697 5.21967C10.7626 4.92678 11.2374 4.92678 11.5303 5.21967Z" fill="url(#paint0_linear_2237_511)"/>
<defs>
<linearGradient id="paint0_linear_2237_511" x1="0" y1="0" x2="18" y2="18" gradientUnits="userSpaceOnUse">
<stop stop-color="#2870DD"/>
<stop offset="1" stop-color="#AA54B7"/>
</linearGradient>
</defs>
</svg>
