<svg width="10" height="18" viewBox="0 0 10 18" fill="none" xmlns="http://www.w3.org/2000/svg">
<path d="M5 0C2.23772 0 0 2.23772 0 5C0 5.55228 0.447715 6 1 6C1.55228 6 2 5.55228 2 5C2 3.34228 3.34228 2 5 2C6.65772 2 8 3.34228 8 5C8 5.81648 7.80143 6.29447 7.56209 6.62855C7.3004 6.99383 6.93729 7.26709 6.43347 7.61346L6.31831 7.69229C5.87116 7.99769 5.29529 8.39102 4.84929 8.93923C4.3224 9.58685 4 10.4061 4 11.5V12C4 12.5523 4.44772 13 5 13C5.55228 13 6 12.5523 6 12V11.5C6 10.8439 6.1776 10.4756 6.40071 10.2014C6.65665 9.88681 7.00256 9.6491 7.51374 9.29782L7.56653 9.26154C8.06271 8.92041 8.6996 8.47492 9.18791 7.79332C9.69857 7.08053 10 6.18352 10 5C10 2.23772 7.76228 0 5 0ZM5 17.25C5.69036 17.25 6.25 16.6904 6.25 16C6.25 15.3096 5.69036 14.75 5 14.75C4.30964 14.75 3.75 15.3096 3.75 16C3.75 16.6904 4.30964 17.25 5 17.25Z" fill="white"/>
</svg>
