<svg width="18" height="20" viewBox="0 0 18 20" fill="none" xmlns="http://www.w3.org/2000/svg">
<path d="M14.4704 14.83L14.8604 17.99C14.9604 18.82 14.0704 19.4 13.3604 18.97L9.9004 16.91C9.6604 16.77 9.6004 16.47 9.7304 16.23C10.2304 15.31 10.5004 14.27 10.5004 13.23C10.5004 9.57 7.3604 6.59 3.50038 6.59C2.71038 6.59 1.94038 6.71 1.22038 6.95C0.850382 7.07 0.490382 6.73 0.580382 6.35C1.49038 2.71 4.99038 0 9.1704 0C14.0504 0 18.0004 3.69 18.0004 8.24C18.0004 10.94 16.6104 13.33 14.4704 14.83Z" fill="white"/>
</svg>
