<svg width="21" height="20" viewBox="0 0 21 20" fill="none" xmlns="http://www.w3.org/2000/svg">
<path d="M20.5 10C20.5 4.47715 16.0228 0 10.5 0C4.97715 0 0.5 4.47715 0.5 10C0.5 11.6428 0.897199 13.2294 1.6449 14.6502L0.528547 18.9386C0.491982 19.0791 0.491986 19.2266 0.528576 19.367C0.646904 19.8213 1.1111 20.0937 1.56538 19.9753L5.85578 18.8583C7.27516 19.6039 8.85956 20 10.5 20C16.0228 20 20.5 15.5228 20.5 10ZM10.5 6C11.6046 6 12.5 6.89543 12.5 8V12C12.5 13.1046 11.6046 14 10.5 14H7.5C6.39543 14 5.5 13.1046 5.5 12V8C5.5 6.89543 6.39543 6 7.5 6H10.5ZM13.5 11.1619V8.83817L15.2344 7.19628C15.7125 6.7437 16.5 7.08261 16.5 7.74093V12.2591C16.5 12.9174 15.7125 13.2563 15.2344 12.8037L13.5 11.1619Z" fill="url(#paint0_linear_2147_1592)"/>
<defs>
<linearGradient id="paint0_linear_2147_1592" x1="0.5" y1="0" x2="20.503" y2="20" gradientUnits="userSpaceOnUse">
<stop stop-color="#2870DD"/>
<stop offset="1" stop-color="#AA54B7"/>
</linearGradient>
</defs>
</svg>
