<svg width="21" height="16" viewBox="0 0 21 16" fill="none" xmlns="http://www.w3.org/2000/svg">
<path d="M14.5 12.25C14.5 14.0449 13.0449 15.5 11.25 15.5H3.75C1.95507 15.5 0.5 14.0449 0.5 12.25V3.75C0.5 1.95507 1.95507 0.5 3.75 0.5H11.25C13.0449 0.5 14.5 1.95507 14.5 3.75V12.25ZM20.262 1.89334C20.4156 2.07414 20.5 2.30368 20.5 2.54096V13.4588C20.5 14.0111 20.0523 14.4588 19.5 14.4588C19.2627 14.4588 19.0332 14.3744 18.8524 14.2208L15.5 11.3709V4.62794L18.8524 1.77899C19.2732 1.42132 19.9043 1.47252 20.262 1.89334Z" fill="url(#paint0_linear_2147_4084)"/>
<defs>
<linearGradient id="paint0_linear_2147_4084" x1="0.5" y1="0.5" x2="14.9" y2="19.7" gradientUnits="userSpaceOnUse">
<stop stop-color="#2870DD"/>
<stop offset="1" stop-color="#AA54B7"/>
</linearGradient>
</defs>
</svg>
